<svg width="25" height="25" viewBox="0 0 25 25" fill="none" xmlns="http://www.w3.org/2000/svg">
<path d="M7.82015 0.863711C6.54334 0.923951 5.67141 1.12771 4.90916 1.42723C4.12027 1.73467 3.45162 2.14724 2.78634 2.81492C2.12105 3.4826 1.71137 4.15172 1.40608 4.9418C1.11064 5.70573 0.910479 6.57837 0.854078 7.85589C0.797678 9.13342 0.785197 9.54406 0.791437 12.8028C0.797678 16.0615 0.812078 16.47 0.873998 17.7502C0.934959 19.0267 1.138 19.8984 1.43752 20.6609C1.74545 21.4498 2.15753 22.1182 2.82546 22.7837C3.49338 23.4492 4.16203 23.858 4.95404 24.1637C5.71725 24.4587 6.59014 24.6598 7.86743 24.7157C9.14472 24.7716 9.55585 24.7846 12.8136 24.7784C16.0714 24.7721 16.4816 24.7577 17.7615 24.697C19.0415 24.6363 19.9086 24.4318 20.6713 24.1337C21.4602 23.8251 22.1291 23.4137 22.7941 22.7455C23.4592 22.0774 23.8686 21.4078 24.1737 20.6172C24.4694 19.854 24.6702 18.9811 24.7257 17.7048C24.7816 16.4239 24.7948 16.015 24.7886 12.7567C24.7823 9.49846 24.7677 9.08998 24.707 7.81029C24.6462 6.53061 24.443 5.66157 24.1437 4.8986C23.8353 4.10972 23.4237 3.4418 22.756 2.7758C22.0883 2.10979 21.4182 1.70059 20.6279 1.39627C19.8642 1.10083 18.9918 0.899471 17.7145 0.844271C16.4372 0.78907 16.0261 0.77491 12.7671 0.78115C9.50809 0.78739 9.10008 0.80131 7.82015 0.863711ZM7.96031 22.5569C6.7903 22.506 6.15501 22.3116 5.73165 22.1489C5.171 21.9329 4.77164 21.6718 4.34971 21.2539C3.92779 20.8361 3.66859 20.4353 3.4497 19.8759C3.2853 19.4525 3.0873 18.8179 3.03258 17.6479C2.97306 16.3834 2.96058 16.0037 2.95362 12.7999C2.94666 9.59614 2.9589 9.21694 3.01434 7.95189C3.06426 6.78285 3.25986 6.14685 3.42234 5.72373C3.63835 5.16237 3.89851 4.76372 4.31731 4.34204C4.73612 3.92036 5.13572 3.66068 5.69565 3.4418C6.11853 3.27668 6.7531 3.08036 7.92263 3.02468C9.18816 2.96468 9.56737 2.95268 12.7707 2.94572C15.974 2.93876 16.3542 2.95076 17.6202 3.00644C18.7892 3.05732 19.4255 3.251 19.8481 3.41444C20.409 3.63044 20.8081 3.88988 21.2298 4.3094C21.6515 4.72892 21.9114 5.12709 22.1303 5.68821C22.2957 6.10989 22.492 6.74421 22.5472 7.91445C22.6074 9.17998 22.6211 9.55942 22.6269 12.7625C22.6326 15.9655 22.6213 16.3459 22.5659 17.6105C22.5148 18.7805 22.3209 19.416 22.1579 19.8399C21.9419 20.4003 21.6815 20.7999 21.2624 21.2213C20.8434 21.6427 20.4443 21.9024 19.8841 22.1213C19.4617 22.2862 18.8264 22.483 17.6578 22.5387C16.3923 22.5982 16.0131 22.6107 12.8086 22.6176C9.60409 22.6246 9.22608 22.6116 7.96055 22.5569M17.743 6.36621C17.7435 6.65104 17.8285 6.92932 17.9871 7.16588C18.1458 7.40243 18.371 7.58662 18.6343 7.69516C18.8977 7.8037 19.1873 7.8317 19.4665 7.77564C19.7458 7.71957 20.0021 7.58195 20.2032 7.38018C20.4042 7.1784 20.5409 6.92155 20.5959 6.64209C20.651 6.36263 20.6219 6.07313 20.5124 5.81019C20.4029 5.54726 20.2179 5.3227 19.9807 5.16492C19.7436 5.00715 19.465 4.92324 19.1802 4.9238C18.7983 4.92457 18.4325 5.07695 18.163 5.34744C17.8934 5.61793 17.7424 5.98438 17.743 6.36621ZM6.62854 12.7918C6.63526 16.195 9.39913 18.9475 12.8016 18.9411C16.2042 18.9346 18.9587 16.171 18.9522 12.7678C18.9457 9.36454 16.1811 6.61125 12.7781 6.61797C9.37512 6.62469 6.62206 9.38902 6.62854 12.7918ZM8.79 12.7874C8.78843 11.9963 9.02151 11.2225 9.45974 10.5638C9.89798 9.90509 10.5217 9.39115 11.252 9.08695C11.9823 8.78275 12.7865 8.70194 13.5627 8.85475C14.339 9.00756 15.0525 9.38712 15.613 9.94543C16.1735 10.5037 16.5559 11.2157 16.7118 11.9914C16.8677 12.767 16.7901 13.5714 16.4888 14.303C16.1875 15.0345 15.676 15.6602 15.019 16.1011C14.3621 16.5419 13.5892 16.778 12.798 16.7796C12.2727 16.7807 11.7523 16.6783 11.2666 16.4783C10.7808 16.2782 10.3393 15.9845 9.96706 15.6137C9.59487 15.243 9.29935 14.8026 9.09739 14.3177C8.89543 13.8327 8.79097 13.3127 8.79 12.7874Z" fill="white"/>
</svg>
