<svg width="25" height="25" viewBox="0 0 25 25" fill="none" xmlns="http://www.w3.org/2000/svg">
<path d="M21.2391 21.2294H17.6831V15.6603C17.6831 14.3323 17.6594 12.6227 15.8336 12.6227C13.9814 12.6227 13.6981 14.0696 13.6981 15.5636V21.229H10.142V9.77668H13.5558V11.3418H13.6036C13.9453 10.7576 14.4389 10.277 15.0321 9.95128C15.6252 9.6255 16.2956 9.46671 16.9719 9.49182C20.5761 9.49182 21.2406 11.8626 21.2406 14.9468L21.2391 21.2294ZM6.1296 8.21122C5.72146 8.2113 5.32245 8.09034 4.98305 7.86364C4.64364 7.63694 4.37911 7.31468 4.22285 6.93761C4.06659 6.56055 4.02564 6.14562 4.10519 5.74529C4.18475 5.34496 4.38123 4.97721 4.66978 4.68855C4.95833 4.39988 5.326 4.20327 5.72629 4.12357C6.12657 4.04387 6.5415 4.08466 6.9186 4.24079C7.29571 4.39692 7.61805 4.66137 7.84486 5.0007C8.07168 5.34003 8.19278 5.739 8.19286 6.14716C8.19291 6.41817 8.13957 6.68653 8.03591 6.93693C7.93225 7.18733 7.7803 7.41486 7.58871 7.60652C7.39712 7.79819 7.16963 7.95024 6.91928 8.05399C6.66893 8.15775 6.4006 8.21117 6.1296 8.21122ZM7.90763 21.2294H4.34787V9.77668H7.90763V21.2294ZM23.012 0.78142H2.56097C2.09679 0.776182 1.6495 0.955449 1.31742 1.27983C0.98534 1.60421 0.795643 2.04716 0.789978 2.51135V23.0479C0.795449 23.5123 0.985035 23.9555 1.3171 24.2803C1.64917 24.605 2.09656 24.7846 2.56097 24.7796H23.012C23.4773 24.7855 23.9259 24.6064 24.2593 24.2817C24.5927 23.957 24.7835 23.5132 24.79 23.0479V2.50987C24.7833 2.04476 24.5924 1.6013 24.259 1.27693C23.9256 0.952558 23.4771 0.773804 23.012 0.779938" fill="white"/>
</svg>
