<svg width="272" height="272" viewBox="0 0 272 272" fill="none" xmlns="http://www.w3.org/2000/svg">
<path d="M272 154.244C271.526 155.904 270.853 157.306 270.608 158.78C268.617 170.788 265.147 182.33 260.003 193.372C255.943 202.084 251.135 210.333 245.292 217.982C238.606 226.736 231.038 234.597 222.569 241.665C214.486 248.412 205.727 254.074 196.317 258.675C184.393 264.505 171.885 268.668 158.693 270.598C157.256 270.808 155.855 271.264 154.453 271.803C142.466 272 130.463 272 118.235 272C116.577 271.526 115.176 270.84 113.704 270.611C102.073 268.794 90.9759 265.287 80.2087 260.554C68.9622 255.61 58.6477 249.152 49.2959 241.287C40.4689 233.864 32.5357 225.531 25.7337 216.117C17.6898 204.985 11.42 192.98 7.05013 180C3.94464 170.776 1.6791 161.334 0.917644 151.584C0.891337 151.247 0.579888 150.932 0.200671 150.619C9.57879e-07 141.187 9.59436e-07 131.742 0 122.073C0.316503 121.426 0.869915 121.026 0.914352 120.577C1.71761 112.45 3.112 104.41 5.82263 96.7213C8.57853 88.9046 11.4814 81.0816 15.1035 73.6429C19.7542 64.0915 25.8563 55.4 32.9136 47.3843C41.7848 37.3084 51.6349 28.4017 62.984 21.1995C77.0234 12.2899 92.1393 6.01661 108.497 2.88935C112.837 2.05962 117.242 1.56757 121.612 0.893311C121.878 0.852339 122.106 0.570888 122.34 0.200665C131.453 -9.72176e-07 140.577 -9.55253e-07 149.927 4.18238e-09C150.574 0.316485 150.973 0.870364 151.422 0.915063C166.356 2.40019 180.533 6.49928 194.12 12.8563C205.599 18.2267 216.059 25.0556 225.584 33.4121C238.422 44.6743 248.976 57.6783 256.89 72.8557C263.674 85.8664 268.351 99.5327 270.622 114.029C270.834 115.385 271.272 116.706 271.803 118.027C272 130.014 272 142.017 272 154.244ZM29.0124 216.859C29.1633 217.137 29.2749 217.448 29.4709 217.691C35.1247 224.688 41.1454 231.313 47.9394 237.265C56.4554 244.725 65.6073 251.267 75.8201 256.059C83.6003 259.709 91.6835 262.852 99.8765 265.45C111.017 268.981 122.604 270.355 134.292 270.528C137.863 270.581 141.453 270.389 145.01 270.052C150.758 269.509 156.565 269.149 162.205 268.009C175.602 265.299 188.36 260.739 200.407 254.137C216.148 245.512 229.601 234.188 240.851 220.298C249.058 210.166 255.665 199.015 260.575 186.883C266.912 171.224 270.121 154.937 270.527 138.087C270.605 134.839 270.443 131.555 270.044 128.331C269.096 120.651 268.418 112.893 266.769 105.355C263.11 88.6223 256.003 73.327 246.157 59.2947C238.806 48.8198 230.192 39.5093 220.212 31.5454C210.086 23.4647 199.067 16.8069 186.995 11.9446C171.255 5.6046 154.907 2.30965 137.968 1.95228C134.559 1.88035 131.122 2.06966 127.73 2.43288C121.446 3.10574 115.12 3.66102 108.927 4.86048C92.5053 8.04101 77.2972 14.3899 63.3073 23.5409C53.0332 30.2614 43.8318 38.226 35.6752 47.466C27.8589 56.3206 21.0613 65.8574 16.0634 76.5066C12.5814 83.9256 9.75187 91.6949 7.19241 99.492C3.64287 110.305 2.29398 121.563 1.9649 132.912C1.84064 137.197 2.1035 141.507 2.43275 145.787C2.79669 150.518 3.15952 155.28 4.01809 159.936C5.82689 169.747 8.54477 179.321 12.5083 188.511C16.8246 198.518 22.1502 207.937 29.0124 216.859Z" fill="white"/>
<path d="M100.28 142.533C99.9455 143.585 99.6804 144.668 99.2426 145.675C99.0647 146.085 98.511 146.331 98.1283 146.651C97.8885 146.186 97.3408 145.607 97.4632 145.276C97.9373 143.99 97.8031 143.071 96.6393 142.206C96.38 142.013 96.5875 141.012 96.7652 140.441C97.8411 136.981 100.034 134.403 102.894 132.194C104.051 131.301 104.761 129.705 105.418 128.309C108.207 122.383 110.834 116.381 113.648 110.467C115.962 105.603 118.221 100.684 120.981 96.0751C122.098 94.2091 124.426 93.0233 126.31 91.6798C127.259 91.0037 128.497 90.7503 129.521 90.1616C132.454 88.476 132.82 87.5517 132.066 84.2161C131.541 81.8903 130.913 79.5821 130.515 77.2348C130.198 75.3651 130.622 73.9094 132.995 74.8632C133.986 72.7629 132.344 72.8755 131.426 72.7765C131.004 72.7309 130.341 73.4689 130.044 73.9963C129.316 75.2876 128.827 76.7157 128.076 77.9914C127.099 79.6525 128.246 80.4923 129.244 81.3609C129.718 81.7742 130.39 81.9607 131.09 82.3082C129.194 83.9721 127.266 83.7979 126.616 81.699C125.673 78.6551 124.646 75.346 124.978 72.2935C125.231 69.9593 127.042 66.9928 129.042 65.8435C131.811 64.2529 135.449 63.4105 138.634 63.6019C140.503 63.7142 142.753 64.2322 144.758 64.8295C147.169 65.5474 149.835 72.6072 148.521 74.6365C148.347 74.906 147.634 75.1813 147.584 75.1197C147.261 74.7195 146.981 74.2503 146.818 73.7602C146.152 71.7564 145.631 69.6979 144.863 67.7358C144.281 66.252 143.172 66.479 141.786 67.5152C144.34 67.9737 145.617 69.4844 145.79 71.7901C146.158 76.6948 145.591 81.4399 142.884 86.1249C143.571 86.5206 144.217 87.1266 144.956 87.2796C150.712 88.4715 155.125 91.1579 157.699 96.8245C158.972 99.6259 161.366 101.918 163.247 104.432C164.876 102.546 166.464 100.786 167.959 98.9515C169.484 97.081 169.43 91.1776 167.523 88.7335C165.345 85.9418 166.224 83.2416 167.071 80.4407C167.224 79.9344 167.592 79.2006 167.989 79.1054C172.489 78.0257 170.374 74.1168 171.179 71.5286C171.754 69.6806 171.515 67.5921 171.821 65.6395C171.896 65.1581 172.681 64.7879 173.14 64.3666C173.372 64.8446 173.84 65.3431 173.8 65.7973C173.429 70.0551 172.956 74.3041 172.558 78.5598C172.513 79.034 172.583 79.7768 172.884 79.9859C176.255 82.3288 175.636 85.8115 175.545 89.1151C175.47 91.8121 175.075 94.5091 175.135 97.1992C175.251 102.418 173.752 107.132 170.511 111.089C169.12 112.788 168.69 114.572 168.454 116.455C167.887 120.959 167.574 125.496 167.122 130.419C169.999 126.683 173.163 123.753 177.59 123.076C180.558 122.622 183.639 122.819 186.664 122.913C187.076 122.926 187.879 124.123 187.775 124.619C187.33 126.732 186.099 128.632 183.926 128.955C181.321 129.342 178.615 129.123 175.959 129.02C175.524 129.004 175.117 128.234 174.697 127.813C175.301 127.604 175.909 127.21 176.509 127.221C178.005 127.25 179.495 127.49 180.992 127.597C182.954 127.737 184.246 126.735 185.237 125.093C176.168 123.064 169.31 128.298 167.079 136.07C165.785 140.578 165.618 145.417 165.035 150.118C164.365 155.533 163.773 160.959 163.191 166.384C162.802 170.008 162.531 173.644 162.109 177.263C162.019 178.037 161.505 178.761 161.186 179.508C160.793 179.398 160.4 179.288 160.007 179.177C162.189 157.99 164.371 136.803 166.58 115.351C163.263 116.708 160.985 115.368 158.892 113.534C157.753 112.535 156.596 111.499 155.714 110.285C155.236 109.627 155.318 108.562 155.148 107.68C155.414 107.601 155.681 107.523 155.948 107.444C157.391 108.984 158.753 110.613 160.297 112.044C162.704 114.277 164.81 114.24 166.379 112.032C166.765 111.489 166.939 110.738 167.037 110.058C167.363 107.77 167.612 105.47 167.909 103.021C164.677 104.126 165.666 108.958 161.465 109.436C162.767 106.644 161.083 105.201 159.927 103.542C157.58 100.173 155.287 96.7672 152.954 93.3887C152.749 93.0923 152.413 92.8866 151.658 92.8237C152.185 95.279 153.001 97.7141 153.174 100.194C153.451 104.152 153.608 108.17 153.233 112.107C152.926 115.321 152.667 118.329 154.413 121.214C157.895 126.968 158.802 133.241 158.894 139.915C159.02 149.024 157.733 157.749 154.411 166.221C153.821 167.725 153.424 169.484 153.571 171.067C154.448 180.567 151.955 189.472 149.089 198.334C148.701 199.535 148.311 200.739 147.998 201.961C147.159 205.227 148.094 207.305 150.976 209.157C151.728 209.64 152.42 210.418 152.803 211.221C153.309 212.281 153.103 213.297 151.616 213.458C150.045 213.628 148.469 213.948 146.9 213.924C142.25 213.853 137.599 213.693 132.956 213.437C132.282 213.4 131.098 212.638 131.106 212.23C131.124 211.336 131.504 210.125 132.173 209.617C136.879 206.045 137.021 205.577 135.308 199.842C133.747 194.619 132.12 189.397 130.977 184.077C130.336 181.093 130.424 177.905 130.53 174.82C130.68 170.449 130.134 166.287 128.173 162.338C127.935 161.858 127.814 160.948 128.082 160.683C128.424 160.342 129.296 160.224 129.8 160.403C133.155 161.596 136.169 161.395 139.267 159.318C141.311 157.947 143.694 158.745 145.794 159.97C146.809 160.561 147.855 161.185 148.97 161.502C152.049 162.376 154.039 161.328 154.888 158.27C157.149 150.129 157.222 141.85 156.539 133.477C156.201 129.332 153.769 126.083 152.7 122.343C151.429 117.898 148.578 116.39 144.61 116.683C140.461 116.991 136.344 117.863 132.25 118.677C131.603 118.806 130.905 119.851 130.653 120.613C128.972 125.676 127.406 130.778 125.723 136.12C124.206 136.146 124.543 134.454 124.799 133.439C125.955 128.867 127.216 124.314 128.668 119.829C129.078 118.559 129.371 117.649 128.725 116.33C126.322 111.426 125.185 106.194 125.205 100.721C125.212 98.8319 125.206 96.9429 124.64 94.8113C123.822 95.8028 122.793 96.6866 122.224 97.8045C119.674 102.81 117.276 107.893 114.778 112.926C113.906 114.683 112.778 116.32 111.988 118.11C110.36 121.799 109.045 125.634 107.274 129.249C106.297 131.245 104.735 132.981 103.291 134.713C102.301 135.899 101.059 136.874 100.089 137.792C100.778 138.812 101.244 139.502 101.601 140.453C101.087 141.32 100.684 141.926 100.28 142.533ZM170.387 107.558C172.281 104.359 173.106 100.885 173.195 97.184C173.267 94.1776 173.412 91.1685 173.66 88.172C174.019 83.8458 172.946 81.8077 169.556 80.7608C167.832 83.086 167.869 84.8882 169.013 87.2431C169.877 89.0238 170.7 91.0672 170.683 92.9862C170.641 97.8012 170.112 102.612 169.553 107.555C169.521 107.823 169.488 108.092 169.455 108.361C169.684 108.171 169.913 107.981 170.387 107.558ZM140.558 192.515C140.473 186.898 141.059 181.22 139.181 175.759C138.614 174.11 138.55 172.627 138.899 170.814C139.424 168.088 139.036 165.187 139.036 162.585C136.222 162.857 133.675 163.103 130.951 163.367C131.573 165.42 132.155 167.339 132.72 169.204C133.95 169.322 135.024 169.425 136.099 169.528C136.197 169.781 136.295 170.033 136.392 170.286C135.157 170.934 133.921 171.582 132.177 172.497C132.434 176.366 132.326 180.699 133.105 184.865C133.942 189.338 135.721 193.626 136.884 198.05C137.844 201.701 139.675 205.488 136.524 209.02C135.767 209.869 134.844 210.572 133.49 211.804C135.611 211.897 137.169 211.916 138.718 212.046C140.513 212.196 141.121 211.401 141.055 209.663C140.843 204.101 140.718 198.537 140.558 192.515ZM151.396 182.219C151.396 178.804 151.396 175.39 151.396 172.031C150.141 171.271 148.006 171.91 147.788 169.53C149.109 169.391 150.271 169.269 151.326 169.158C151.813 167.243 152.251 165.523 152.663 163.904C149.987 163.49 147.518 163.109 144.978 162.716C144.822 164.46 144.293 166.325 144.58 168.054C145.063 170.96 145.292 173.633 144.536 176.641C143.605 180.353 143.603 184.329 143.459 188.2C143.192 195.368 143.086 202.543 143.001 209.716C142.993 210.456 143.533 211.811 143.909 211.843C145.904 212.018 147.929 211.861 149.944 211.819C149.943 211.568 149.943 211.316 149.942 211.065C149.603 210.878 149.207 210.751 148.934 210.493C147.21 208.867 145.036 207.335 145.525 204.604C146.107 201.351 147.064 198.163 147.901 194.958C148.978 190.833 150.098 186.719 151.396 182.219ZM135.593 97.9606C139.186 102.705 142.5 107.594 143.875 113.527C143.973 113.947 144.474 114.519 144.861 114.584C146.84 114.917 148.844 115.107 150.921 115.357C151.167 112.715 151.352 110.434 151.596 108.16C152.184 102.678 150.485 97.4789 149.538 92.199C149.397 91.4146 148.124 90.7404 147.241 90.2624C147.07 90.1695 146.121 91.1438 145.794 91.7644C142.822 97.4016 141.939 98.28 137.026 96.9824C136.577 96.8637 135.941 97.4473 135.593 97.9606ZM133.3 98.6394C132.207 96.5891 131.115 94.5388 130.019 92.4813C127.135 93.6032 127.059 93.6731 127.144 96.785C127.169 97.7215 127.655 98.6955 127.503 99.5787C126.72 104.119 127.95 108.319 129.413 112.51C130.822 116.544 130.8 116.548 134.838 115.671C135.147 115.604 135.478 115.647 135.791 115.594C137.831 115.247 139.868 114.888 141.865 114.54C140.576 108.23 137.22 103.474 133.3 98.6394ZM139.23 70.0803C137.918 71.3565 135.866 72.4438 135.48 73.9566C134.992 75.8657 134.381 76.8787 132.693 77.0214C133.257 79.6761 133.689 82.2119 134.35 84.6864C135.039 87.2639 135.95 89.7821 136.763 92.3263C136.489 92.4879 136.214 92.6496 135.939 92.8112C135.112 91.9014 134.285 90.9916 133.121 89.7123C132.864 90.7192 132.451 91.4973 132.524 92.2265C132.67 93.684 133.616 94.9639 135.081 94.7861C137.324 94.5139 139.814 96.8429 141.758 94.3641C142.857 92.9634 143.571 91.2614 144.138 90.2601C142.63 88.5115 141.43 87.12 139.968 85.4236C138.336 85.3123 135.952 85.5675 134.956 82.7438C136.062 82.6769 137.094 82.8372 138.065 83.1753C140.808 84.1311 141.966 83.5934 142.721 80.8704C141.508 80.6164 139.67 82.0438 139.278 80.2463C140.052 79.0941 140.765 78.4247 140.973 77.6245C141.219 76.6743 141.03 75.6115 141.03 74.5538C142.111 74.4085 142.879 74.3052 143.611 74.2068C144.164 70.6223 143.57 70.025 139.23 70.0803ZM139.092 68.0994C139.067 67.3601 139.324 66.2682 138.949 65.9684C138.45 65.5706 137.093 65.4411 136.742 65.8072C135.256 67.3599 133.451 67.1288 131.637 67.1736C129.36 67.2299 128.891 67.9314 129.392 70.364C132.181 70.6499 135.182 71.9892 137.22 68.6467C137.435 68.2927 138.223 68.287 139.092 68.0994ZM142.085 176.518C142.516 175.273 143.292 174.033 143.311 172.781C143.362 169.348 143.14 165.906 142.908 162.476C142.868 161.889 142.247 161.341 141.894 160.776C141.61 161.329 141.1 161.875 141.08 162.438C140.99 165.027 141.357 167.673 140.94 170.196C140.555 172.52 141.013 174.528 142.085 176.518ZM127.372 74.3577C127.63 73.6248 127.888 72.892 128.146 72.1591C127.781 72.1179 127.415 72.0768 127.049 72.0357C127.082 72.7442 127.115 73.4527 127.372 74.3577Z" fill="white"/>
<path d="M110.778 156.83C110.146 156.4 109.198 156.11 108.936 155.516C107.601 152.493 108.99 149.421 111.801 147.716C113.645 146.597 115.111 144.868 116.803 143.48C117.336 143.043 118.078 142.511 118.677 142.564C122.148 142.868 124.771 141.199 127.185 139.077C128.851 137.612 130.028 138.433 131.25 139.647C134.146 142.523 133.523 148.009 131.146 150.001C125.419 154.801 124.044 161.643 121.581 168.012C121.307 168.721 121.208 169.649 121.411 170.367C122.834 175.402 120.136 179.416 118.296 183.663C117.991 184.367 117.892 185.229 117.939 186.004C118.308 192.07 121.388 197.294 123.354 202.857C123.851 204.264 125.189 205.405 126.246 206.572C127.177 207.6 127.588 208.507 126.317 209.594C122.624 206.814 120.77 202.951 119.457 198.783C118.253 194.958 117.17 191.094 116.059 187.24C115.681 185.931 115.18 185.457 113.679 186.087C110.384 187.469 108.894 189.937 108.453 193.339C108.068 196.314 107.464 199.26 107.012 202.227C106.604 204.911 109.06 207.704 111.788 207.716C113.933 207.725 116.078 207.717 119.051 207.717C118.128 205.974 117.769 204.348 116.762 203.619C115.257 202.529 114.809 201.199 114.672 199.605C114.44 196.907 114.309 194.218 111.749 192.447C111.477 192.259 111.614 191.48 111.561 190.975C112.046 190.94 112.62 190.718 113.003 190.899C115.903 192.269 116.015 195.189 116.501 197.766C116.853 199.629 117.147 201.006 118.822 202.484C120.235 203.73 120.21 206.635 120.697 208.833C120.729 208.978 119.713 209.578 119.176 209.59C115.9 209.664 112.621 209.669 109.345 209.613C107.816 209.586 104.91 205.793 105.111 203.741C105.479 199.971 106.34 196.245 106.64 192.473C107.03 187.567 109.945 185.194 114.205 183.632C115.43 183.182 116.511 181.902 117.276 180.75C118.183 179.384 118.85 177.792 119.294 176.207C119.637 174.983 119.508 173.619 119.535 172.316C119.568 170.644 119.128 168.83 119.63 167.323C121.1 162.904 122.754 158.522 124.715 154.302C125.514 152.585 127.246 151.278 128.632 149.861C131.491 146.936 131.726 144.163 129.105 140.534C127.986 141.261 126.889 142.083 125.693 142.718C124.472 143.367 123.132 144.33 121.884 144.273C119.473 144.163 117.795 145.301 116.094 146.601C113.242 148.781 113.116 153.069 115.794 155.364C116.674 156.118 117.535 156.894 118.504 157.747C120.535 155.566 120.085 153.245 119.059 150.779C118.707 149.932 118.804 148.899 119.081 147.889C121.904 150.148 122.118 153.175 121.768 156.251C121.468 158.884 119.533 160.078 117.185 160.664C116.286 159.338 115.429 158.074 114.417 156.582C113.986 157.127 113.742 157.324 113.642 157.578C111.227 163.699 105.159 165.044 100.131 167.541C98.258 168.471 95.5507 168.1 93.2943 167.797C88.8381 167.199 84.456 166.017 79.994 165.507C77.4054 165.211 74.4709 165.115 72.1276 166.037C65.4704 168.655 58.8215 168.202 52.3478 166.269C48.3297 165.069 44.7004 162.531 40.964 160.472C40.5218 160.228 40.5059 159.211 40.2923 158.552C40.4598 158.428 40.6274 158.305 40.7949 158.181C43.2176 159.459 45.7349 160.589 48.041 162.051C51.5682 164.288 55.4541 164.995 59.4899 165.554C63.9563 166.173 68.0545 165.194 72.2109 163.761C77.1872 162.045 82.0828 163.676 86.9683 164.62C89.3694 165.084 91.7595 165.69 94.1843 165.922C96.6921 166.163 99.2598 166.31 101.459 164.497C102.232 163.86 103.251 163.356 104.23 163.166C107.592 162.515 109.594 160.374 111.192 157.191C111.576 155.013 111.741 153.089 111.907 151.165C111.53 151.158 111.154 151.152 110.778 151.145C110.778 153.04 110.778 154.935 110.778 156.83Z" fill="white"/>
<path d="M45.0507 117.421C45.0765 115.372 45.0765 113.505 45.0765 111.321C44.4724 111.034 43.5069 110.574 41.8292 109.777C42.7652 111.717 43.3887 113.01 44.0121 114.302C43.9465 114.516 43.8809 114.73 43.8153 114.944C43.067 114.699 41.8418 114.646 41.6538 114.177C40.8743 112.232 40.1637 110.191 39.9044 108.126C39.6977 106.479 40.7678 106.094 42.1545 107.177C44.3674 108.905 46.5595 110.439 49.2931 107.891C49.2931 106.272 49.2931 104.548 49.2931 102.136C52.7671 105.028 56.1872 105.996 60.0382 106.216C62.5991 106.362 64.5307 108.107 64.4416 111.447C65.9573 111.04 67.2032 110.544 68.4901 110.389C72.0729 109.958 75.4821 110.863 78.5506 112.576C79.3828 113.04 79.4723 114.835 79.9974 116.28C81.7417 116.185 84.1799 115.673 86.4953 116.008C90.9358 116.652 95.2985 117.818 99.7107 118.679C101.246 118.979 102.832 119.018 104.395 119.177C104.488 119.415 104.58 119.654 104.672 119.893C103.935 120.224 103.15 120.916 102.47 120.825C98.8821 120.343 95.244 119.944 91.7663 118.993C84.6385 117.045 78.0233 118.295 71.4996 121.307C70.1128 121.947 68.465 122.217 66.9218 122.282C63.8219 122.412 61.9274 120.123 62.1593 116.696C63.5634 116.684 64.4712 117.119 64.9115 118.647C65.109 119.332 65.928 120.168 66.6068 120.326C69.3752 120.97 76.0602 117.276 77.4963 114.329C74.1963 113.103 71.0589 111.397 67.356 112.856C66.4864 113.199 65.5283 113.46 64.6035 113.485C63.4014 113.518 62.2304 113.325 62.3463 111.57C62.4993 109.254 60.9274 108.324 58.9944 107.975C56.3915 107.505 53.7573 107.209 51.1416 106.839C51.5072 109.047 53.2738 110.118 55.4738 110.836C56.0284 111.017 56.4564 111.586 56.9426 111.977C56.3216 112.222 55.6458 112.758 55.0913 112.653C53.9503 112.437 52.8859 111.843 51.7678 111.472C50.8206 111.157 49.2201 110.459 48.989 110.76C48.1542 111.847 47.6197 113.244 47.2642 114.601C46.837 116.231 47.0424 118.097 46.3496 119.567C45.7518 120.836 45.6552 121.549 46.4243 122.733C47.0628 123.717 47.4041 125.046 47.4456 126.237C47.5726 129.883 47.4918 133.536 47.4918 137.717C48.2642 137.717 49.4247 137.584 50.5375 137.757C51.5505 137.914 52.725 138.186 53.4017 138.845C53.718 139.153 53.1581 140.567 52.7338 141.335C52.5444 141.678 51.7106 141.665 51.1692 141.814C50.379 138.62 47.5028 140.899 45.7272 139.249C46.0019 142.257 46.9502 143.864 49.6332 144.296C52.2974 144.724 55.3808 143.834 56.5197 141.621C57.9999 138.744 60.4939 137.55 63.359 136.631C66.052 135.768 68.8966 134.971 69.5635 131.521C69.6383 131.135 70.3889 130.878 70.8262 130.562C71.0332 131.094 71.4798 131.661 71.4075 132.151C71.0007 134.911 69.4043 136.741 66.7487 137.621C65.3381 138.089 63.9204 138.535 61.7652 139.229C70.2427 142.258 75.5372 147.343 76.2861 156.234C75.3236 156.762 74.378 156.387 73.9193 155.002C73.3502 153.283 73.0632 151.456 72.3633 149.799C71.7687 148.391 70.761 147.157 69.9361 145.846C69.694 145.976 69.4519 146.107 69.2097 146.237C69.4897 148.952 69.5814 151.705 70.1214 154.367C70.4365 155.921 71.5432 157.299 72.1479 158.815C72.4736 159.631 72.4918 160.571 72.2991 161.52C68.7933 158.975 67.8268 155.445 67.6275 151.555C67.555 150.14 67.3843 148.723 67.1519 147.325C66.534 143.607 64.0241 141.789 60.5554 141.185C59.9785 141.084 58.9675 141.756 58.6184 142.344C56.2645 146.312 49.2757 147.846 45.6298 145.098C44.3433 144.129 42.959 139.647 43.9381 138.252C45.9637 135.365 45.4684 132.198 45.5897 129.054C45.6837 126.62 45.4041 124.478 43.6894 122.442C42.1512 120.616 44.3327 119.173 45.0507 117.421Z" fill="white"/>
<path d="M184.563 67.7466C185.334 67.8595 186.132 68.0934 186.606 67.8012C187.735 67.1037 188.712 66.1582 189.919 65.1762C189.031 62.6457 188.073 59.9864 187.177 57.3061C186.998 56.7707 187.058 56.1555 187.008 55.5771C187.675 55.5213 188.396 55.2736 189.002 55.4404C193.406 56.6526 196.238 59.7735 198.674 63.4287C199.384 64.4939 200.39 65.467 201.467 66.1654C208.366 70.6423 213.718 76.3678 216.359 84.3061C217.286 87.0953 219.372 88.84 221.491 90.6411C223.74 92.5529 224.979 94.9944 225.019 97.928C224.799 98.1017 224.579 98.2754 224.359 98.4491C223.916 97.9345 223.269 97.4896 223.065 96.8933C222.128 94.14 220.061 92.4041 218.073 90.4309C216.297 88.6697 215.036 86.2257 214.041 83.8743C211.218 77.2009 206.779 71.8443 200.59 68.3189C197.882 66.7763 197.068 64.2105 195.199 62.2948C193.735 60.7939 192.123 59.4369 190.323 58.2423C190.829 61.7037 191.352 65.0273 194.703 66.9407C195.167 67.2057 195.322 68.0132 195.62 68.5696C194.992 68.6389 194.316 68.8885 193.746 68.7384C192.7 68.4634 191.373 67.3308 190.776 67.6618C189.259 68.5024 187.903 69.8181 186.839 71.2154C186.253 71.9862 185.989 73.4258 186.272 74.3532C187.024 76.8244 186.376 78.9416 185.002 80.8275C183.896 82.3436 183.933 83.7735 185.063 84.9241C186.965 86.8621 187.374 89.3176 187.484 91.7007C187.728 96.9939 187.644 102.305 187.58 107.608C187.554 109.743 190.147 113.588 191.921 113.689C196.698 113.962 199.122 112.194 199.068 108.341C198.999 103.382 200.696 98.9526 203.486 95.0495C204.956 92.9942 205.489 91.0044 205.343 88.6393C205.32 88.263 205.468 87.8761 205.652 86.8487C206.378 87.7062 207.109 88.169 207.16 88.6976C207.407 91.2415 207.301 93.6719 205.606 95.9233C202.606 99.9053 200.548 104.232 201.38 109.512C201.735 111.766 198.086 115.414 195.577 115.581C193.906 115.692 192.159 115.877 190.564 115.512C189.319 115.228 188.255 114.15 186.892 113.286C182.754 114.54 177.713 113.798 173.46 116.415C173.381 116.463 173.012 116.04 172.639 115.714C174.347 113.01 177.039 112.554 179.813 112.255C181.459 112.077 183.125 111.994 184.743 111.671C185.731 111.474 186.264 110.938 185.854 109.587C185.509 108.448 185.925 107.082 185.987 105.816C186.046 104.622 186.19 103.421 186.111 102.235C185.845 98.2054 185.595 94.1701 185.124 90.1626C184.975 88.8997 184.331 87.5902 183.594 86.523C181.93 84.1151 181.696 81.9358 183.312 79.5359C184.284 78.0936 184.877 76.7082 184.276 74.9142C184.012 74.1241 184.006 73.0919 184.281 72.3103C184.778 70.9016 184.136 70.1361 183.225 69.2654C180.656 66.8105 179.624 63.7803 180.032 59.5647C182.998 61.4931 185.609 63.1907 188.221 64.8882C188.066 65.2162 187.911 65.5442 187.756 65.8722C186.132 65.4548 184.508 65.0375 182.392 64.4937C183.162 65.6711 183.802 66.6497 184.563 67.7466Z" fill="white"/>
<path d="M200.511 188.709C202.83 188.914 205.005 189.024 207.182 189.072C208.698 189.106 210.236 188.887 211.729 189.071C216.486 189.659 218.508 188.475 220.564 183.579C218.817 182.573 216.949 181.702 215.345 180.483C214.606 179.921 214.26 178.716 213.955 177.734C213.425 176.024 212.833 174.599 210.097 175.977C210.774 176.422 211.583 176.757 212.075 177.354C212.352 177.69 212.303 178.591 212.033 178.989C211.821 179.302 210.827 179.506 210.559 179.289C209.317 178.284 207.755 177.39 208.225 175.328C208.622 173.587 209.853 172.899 211.409 173.224C214.02 173.769 216.573 174.59 219.151 175.291C221.562 175.946 223.726 175.782 224.935 173.933C223.754 172.166 222.609 170.691 221.723 169.075C219.953 165.847 214.293 165.521 211.618 168.583C211.309 168.937 211.172 169.534 210.804 169.721C210.331 169.961 209.704 169.902 209.144 169.972C209.115 169.407 208.85 168.681 209.104 168.311C209.683 167.468 210.392 166.557 211.27 166.111C213.158 165.152 212.662 163.678 212.318 162.284C211.463 158.819 208.802 156.722 206.166 154.703C204.225 153.215 202.083 151.99 200.039 150.635C193.676 146.42 186.667 146.077 179.423 147.213C176.307 147.702 173.21 148.319 170.09 148.778C169.586 148.852 169.004 148.402 168.458 148.194C168.88 147.731 169.234 146.965 169.735 146.853C172.966 146.133 176.219 145.114 179.485 145.034C184.611 144.908 189.923 143.785 194.861 145.865C201.76 148.771 208.285 152.375 212.917 158.537C213.688 159.562 214.211 160.948 214.362 162.225C214.58 164.072 215.389 164.546 217.144 164.593C220.355 164.68 222.864 165.877 224.167 169.23C224.606 170.361 226.239 171.03 227.708 172.219C228.208 176.567 223.65 178.631 215.63 176.543C216.107 177.57 216.235 178.51 216.75 178.831C218.332 179.817 220.029 180.643 221.746 181.381C223.072 181.951 223.465 182.92 222.874 184.035C220.014 189.427 218.442 192.626 211.015 191.071C209.076 190.665 206.926 191.262 204.873 191.408C199.839 191.768 196.689 189.701 195.343 184.833C191.535 185.343 188.872 190.801 188.56 194.424C188.377 196.546 188.187 198.757 190.296 200.276C190.636 200.521 190.844 201.089 190.911 201.538C190.99 202.068 190.851 202.631 190.806 203.18C190.307 202.972 189.65 202.902 189.334 202.536C185.844 198.486 185.499 192.499 188.695 187.714C189.839 186.002 191.788 184.837 192.981 183.148C195.158 180.067 197.051 176.784 199.051 173.578C199.694 172.548 199.396 170.705 201.413 170.879C201.265 172.003 201.328 173.211 200.922 174.231C200.195 176.056 199.195 177.773 198.288 179.524C197.724 180.613 196.378 181.995 196.676 182.701C197.564 184.807 199.09 186.644 200.511 188.709Z" fill="white"/>
<path d="M180.728 184.423C180.938 181.788 180.487 179.708 177.906 178.575C177.348 178.33 177.122 177.332 176.743 176.681C177.434 176.688 178.278 176.44 178.79 176.747C180.582 177.824 182.451 177.568 182.925 175.798C183.329 174.291 182.581 172.298 181.869 170.735C181.434 169.781 180.104 169.235 179.058 168.412C179.151 167.614 179.26 166.667 179.437 165.146C175.315 168.558 171.866 171.637 171.234 176.745C170.846 179.881 169.8 182.233 166.049 182.841C161.398 183.595 160.011 187.853 158.954 191.522C157.722 195.797 157.424 200.358 156.916 204.817C156.69 206.805 157.742 207.837 159.949 207.753C163.452 207.619 166.964 207.717 170.929 207.717C170.342 206.136 169.922 204.838 169.383 203.591C168.471 201.483 167.384 199.444 166.57 197.301C166.165 196.233 166.163 195.001 166.047 193.836C165.943 192.789 165.88 191.731 165.903 190.68C165.915 190.161 166.165 189.648 166.307 189.133C166.814 189.392 167.614 189.537 167.77 189.934C168.135 190.868 168.544 192.014 168.309 192.91C167.656 195.394 168.81 197.325 169.75 199.389C170.733 201.547 171.754 203.706 172.49 205.952C173.403 208.735 172.665 209.625 169.811 209.634C166.374 209.644 162.938 209.649 159.502 209.632C156.301 209.617 155.029 208.326 154.942 205.196C154.769 199.016 155.484 193.043 158.321 187.407C160.043 183.984 162.159 181.187 166.187 180.523C167.862 180.247 168.452 179.185 168.881 177.684C169.638 175.036 170.082 172.07 171.62 169.929C173.611 167.157 175.687 164.077 179.404 163.052C181.396 162.503 182.299 163.116 181.69 165.028C181.179 166.634 181.593 167.351 182.83 168.384C183.79 169.186 184.138 170.754 184.673 172.017C184.912 172.581 184.821 173.294 185.09 173.836C186.165 175.999 185.444 177.44 183.481 178.59C182.97 178.89 182.277 179.755 182.397 180.119C183.397 183.155 182.608 185.947 181.337 188.626C178.897 193.766 180.242 199.089 180.427 204.352C180.471 205.604 183.296 207.709 184.665 207.712C189.619 207.724 194.574 207.718 199.528 207.718C200.395 207.718 201.262 207.718 202.129 207.718C202.261 207.964 202.393 208.21 202.525 208.457C201.922 208.846 201.325 209.567 200.717 209.575C194.645 209.659 188.549 209.905 182.514 209.424C181.062 209.308 179.008 206.852 178.631 205.161C177.814 201.489 177.547 197.598 177.744 193.833C177.875 191.314 179.183 188.855 179.982 186.374C180.174 185.775 180.433 185.197 180.728 184.423Z" fill="white"/>
<path d="M245.775 102.019C243.771 96.6755 241.856 91.5041 239.941 86.3327C240.071 86.1503 240.201 85.9679 240.332 85.7854C240.927 86.2049 241.81 86.4912 242.075 87.0637C246.92 97.5279 250.389 108.465 251.727 119.904C252.612 127.463 253.054 135.169 252.685 142.76C251.981 157.247 248.453 171.148 242.43 184.422C238.577 192.914 233.979 200.993 228.001 208.048C222.43 214.622 215.918 220.399 209.767 226.472C209.344 226.89 208.473 226.854 207.811 227.03C208.062 226.315 208.109 225.383 208.599 224.92C211.774 221.923 215.181 219.163 218.261 216.074C228.513 205.793 236.231 193.821 242.009 180.503C246.362 170.468 249.092 160.006 250.298 149.228C251.555 137.995 251.441 126.698 249.015 115.557C248.042 111.085 246.918 106.646 245.775 102.019Z" fill="white"/>
<path d="M26.0507 100.933C23.6623 109.334 21.6518 117.594 21.0313 126.179C20.4444 134.298 20.5873 142.336 21.4993 150.431C23.1373 164.97 27.795 178.492 34.7417 191.247C38.6827 198.483 43.1775 205.418 48.9947 211.334C53.4972 215.913 58.2402 220.255 62.8032 224.776C63.336 225.304 63.4039 226.301 63.6874 227.081C62.9624 226.82 62.1068 226.724 61.532 226.272C51.7708 218.595 43.7159 209.359 37.0423 198.93C28.8906 186.191 23.3533 172.387 20.6189 157.483C18.9778 148.539 18.2622 139.505 18.7713 130.447C19.3087 120.886 20.665 111.4 23.735 102.273C25.4458 97.1863 27.4246 92.1881 29.3849 87.1903C29.5993 86.6437 30.4917 86.3632 31.0697 85.9592C31.1378 86.6387 31.4532 87.4129 31.2348 87.9825C29.5932 92.2639 27.8465 96.5049 26.0507 100.933Z" fill="white"/>
<path d="M92.683 80.205C92.4775 74.847 92.6618 74.7732 97.4534 72.6041C102.785 70.1908 108.141 67.7713 113.222 64.8871C117.049 62.7139 120.786 60.1046 122.836 55.9393C124.752 52.0453 124.813 48.0471 123.017 44.0329C122.673 43.2651 122.656 42.351 122.368 40.8963C125.146 42.2481 125.555 44.154 125.854 45.9846C126.834 51.9951 125.82 57.2151 121.015 61.7064C114.932 67.392 107.448 70.3652 100.178 73.8433C99.0367 74.3893 97.8593 74.8592 96.7102 75.3894C95.3396 76.0218 93.7977 77.0021 94.6871 78.5471C95.2811 79.5788 97.0708 80.4616 98.3253 80.4616C100.984 80.4615 103.639 79.8041 106.304 79.4873C108.012 79.2843 109.735 79.2082 111.411 79.0784C112.387 84.7659 108.55 88.4365 102.378 88.0086C103.436 91.1398 104.37 94.2818 105.564 97.3224C106.487 99.677 108.731 99.1388 110.627 99.1282C111.647 99.1226 112.684 98.7896 113.68 98.8993C114.233 98.9601 114.719 99.6282 115.8 100.454C112.971 100.839 110.954 101.113 108.761 101.411C108.953 101.928 109.17 102.514 109.366 103.042C109.187 103.257 109.112 103.444 108.996 103.474C106.762 104.057 105.693 102.511 104.997 100.924C103.734 98.0417 102.848 94.9953 101.62 92.0955C100.755 90.0508 99.5851 88.1348 98.5953 86.2456C97.9421 86.46 97.7698 86.4746 97.6519 86.5623C96.9823 87.0602 96.3257 87.5757 95.6646 88.0851C95.5094 87.6913 95.1073 87.1216 95.2412 86.9337C95.8728 86.0471 96.5458 84.744 97.4025 84.5708C98.613 84.3261 99.9995 84.9356 101.308 85.1956C102.603 85.4531 103.918 86.0304 105.184 85.9356C107.794 85.7404 108.875 83.8566 109.402 81.0928C106.033 81.5118 102.864 81.8321 99.7209 82.3196C97.063 82.7318 94.6701 82.4736 92.683 80.205Z" fill="white"/>
<path d="M84.0655 55.3005C86.7202 51.8713 89.596 48.9382 93.3963 47.0982C94.0735 46.7703 94.9489 46.8517 95.7328 46.7441C95.827 47.0289 95.9211 47.3137 96.0153 47.5985C95.1584 48.2139 94.194 48.7231 93.463 49.4629C90.0192 52.9477 86.4238 56.3176 83.3125 60.0837C81.2277 62.6073 82.5179 67.1785 85.2593 69.271C87.4335 70.9306 89.0152 72.8778 88.3022 75.9139C88.1265 76.6619 88.276 77.4864 88.276 78.4042C88.9375 78.5355 89.4958 78.5605 89.9703 78.773C90.2512 78.8988 90.5564 79.3168 90.5636 79.6103C90.5708 79.9062 90.223 80.4726 90.0302 80.4728C86.144 80.4776 83.8403 83.2408 81.2467 85.6283C81.5784 85.9146 82.0413 86.3142 82.9087 87.0629C79.9036 89.5489 77.0771 91.8871 74.0763 94.3695C75.5013 94.449 76.9483 94.5298 79.2975 94.661C77.3583 96.5062 75.8908 97.9025 74.2184 99.4937C74.9018 99.5997 75.4912 99.8175 76.051 99.7577C79.9461 99.3416 83.8274 98.778 87.7287 98.4451C90.2293 98.2318 92.108 97.2852 93.3484 95.0629C93.5213 94.7531 94.1199 94.6808 94.5459 94.4874C95.3705 97.6121 93.681 99.2585 88.0108 100.721C88.9855 103.946 89.9933 107.146 90.8961 110.375C91.0869 111.058 90.8939 111.848 90.8777 112.589C90.2103 112.077 89.1614 111.693 88.94 111.032C87.8406 107.751 86.9594 104.396 85.8498 100.541C83.5015 100.802 80.8795 100.845 78.3839 101.429C74.6704 102.297 72.062 101.521 71.3072 98.2837C70.4407 94.567 70.45 92.9196 74.4311 91.1743C76.8244 90.125 78.6024 88.9272 78.235 85.96C78.1848 85.5551 78.4118 84.9615 78.7185 84.6923C80.6024 83.0388 82.4387 81.2957 84.5007 79.8903C86.5076 78.5225 87.3683 73.9514 85.4533 72.3474C82.8635 70.1783 80.3919 68.2916 80.4883 64.2766C80.5728 60.7567 81.884 58.0192 84.0655 55.3005Z" fill="white"/>
<path d="M134.184 228.844C135.043 228.66 135.707 228.489 136.474 228.29C134.271 225.991 134.266 225.855 136.972 224.437C138.51 223.63 140.101 222.9 141.729 222.298C142.439 222.034 143.549 221.83 144.051 222.191C146.754 224.134 148.623 222.038 150.841 221.147C153.003 220.279 155.314 219.544 157.614 219.33C159.86 219.121 160.537 220.343 160.007 222.554C158.16 230.266 152.16 234.473 144.793 234.983C141.014 235.245 137.176 234.793 133.376 234.508C132.733 234.46 132.148 233.623 131.537 233.15C132.242 232.949 132.981 232.499 133.648 232.587C140.002 233.426 146.274 233.927 152.157 230.473C155.348 228.601 157.953 224.453 157.558 221.273C154.662 221.168 152.308 222.619 149.96 224.002C145.046 226.898 140.167 229.914 134.438 230.899C124.199 232.659 116.603 229.253 111.875 219.41C111.637 218.915 111.969 218.145 112.036 217.503C112.59 217.681 113.251 217.722 113.68 218.058C116.673 220.412 119.886 221.814 123.818 220.975C124.143 220.906 124.971 221.771 125.055 222.284C125.249 223.481 125.186 224.731 125.114 225.953C125.087 226.415 124.747 226.857 124.549 227.309C124.102 227.086 123.426 226.976 123.252 226.62C122.737 225.573 122.422 224.429 122.01 223.27C120.137 223.051 118.229 222.827 116.219 222.591C120.759 228.727 127.401 230.343 134.184 228.844ZM142.703 225.543C143.163 225.24 143.624 224.938 144.084 224.636C143.968 224.391 143.852 224.146 143.735 223.902C141.959 224.578 140.183 225.254 138.106 226.044C140.053 227.997 141.136 225.991 142.703 225.543Z" fill="white"/>
<path d="M99.7771 183.705C99.7231 182.671 99.7231 181.812 99.7231 180.953C99.9845 180.927 100.246 180.9 100.507 180.874C102.24 183.301 103.452 185.979 103.592 189.031C103.716 191.741 103.621 194.461 103.615 197.177C103.614 197.655 103.767 198.298 103.521 198.585C101.558 200.877 103.086 203.199 103.482 205.439C104.104 208.96 103.704 209.633 100.268 209.636C95.6356 209.639 91.0028 209.633 86.3701 209.637C85.2314 209.639 84.141 209.725 83.8251 208.149C83.7313 207.68 82.9822 207.251 82.4446 206.98C80.2714 205.883 79.0072 204.037 78.7627 201.751C78.3919 198.282 78.114 194.763 78.2764 191.288C78.4256 188.095 79.0846 184.904 79.7459 181.76C80.487 178.236 84.4156 176.269 87.7863 177.617C88.23 177.794 88.4899 178.431 88.9434 178.988C82.5237 180.476 82.5237 180.476 81.9909 182.037C87.8346 180.517 92.3528 184.278 97.4109 185.895C98.4102 186.215 99.4482 186.413 101.11 186.827C100.496 185.412 100.163 184.646 99.7771 183.705ZM91.9509 186.08C88.7702 183.976 85.4344 182.973 81.6849 184.656C81.5817 185.899 81.8451 187.351 81.3077 188.39C79.117 192.623 80.5041 196.958 80.6624 201.247C80.7215 202.849 85.1912 207.614 86.7009 207.648C91.6227 207.76 96.5486 207.69 101.762 207.69C101.228 205.559 100.721 203.756 100.347 201.926C100.209 201.251 100.119 200.331 100.46 199.829C102.871 196.276 101.183 192.448 101.653 189.27C98.247 188.149 95.2735 187.17 91.9509 186.08Z" fill="white"/>
<path d="M218.158 110.444C222.64 117.216 222.861 124.355 221.007 131.817C220.636 133.312 220.611 135.006 220.887 136.524C221.533 140.086 220.676 143.034 218.249 145.711C217.49 146.549 217.174 147.862 216.86 149.013C216.406 150.676 216.199 152.408 215.74 154.07C215.643 154.424 214.913 154.602 214.475 154.861C214.24 154.414 213.685 153.798 213.819 153.546C215.516 150.348 213.865 146.129 217.394 143.329C219.022 142.038 219.165 139.499 218.958 136.968C218.66 133.322 219.22 129.526 219.932 125.896C221.058 120.153 218.563 115.609 215.708 110.352C214.348 114.372 215.41 118.574 211.617 121.798C211.525 120.636 211.199 119.824 211.46 119.308C214.145 114 213.014 108.326 212.843 102.845C212.641 96.3437 210.873 90.0619 208.175 84.0987C207.099 81.721 205.914 79.3913 204.894 76.9907C204.647 76.4088 204.856 75.6326 204.856 74.9457C205.458 75.3073 206.345 75.5218 206.618 76.0525C210.555 83.6829 214.052 91.4818 214.433 100.252C214.596 104.008 216.052 107.239 218.158 110.444Z" fill="white"/>
<path d="M153.759 50.807C152.231 51.0256 150.886 51.1407 149.595 51.4691C149.241 51.5593 149.049 52.2879 148.783 52.7236C149.207 52.9156 149.621 53.1408 150.061 53.2852C150.272 53.3547 150.57 53.1874 150.767 53.2716C152.132 53.8538 153.441 54.8177 154.847 54.9832C156.194 55.1417 157.637 54.4841 159.226 54.1452C158.293 57.6139 155.061 57.949 150.912 55.4171C149.035 57.1397 148.392 57.0325 147.329 54.8204C145.969 51.9879 147.21 49.5407 150.295 48.973C153.66 48.3539 154.262 47.3664 153.113 43.9524C152.746 42.8627 152.001 41.9028 151.455 40.8699C151.113 40.2225 150.819 39.5497 150.313 38.491C154.472 38.3979 157.618 39.9994 160.739 41.5975C161.638 42.0574 162.428 42.7836 163.164 43.4957C166.477 46.7025 166.214 48.6109 162.182 51.073C161.927 51.2283 161.699 51.4259 161.483 51.5858C162.805 53.2116 164.224 54.7276 165.37 56.4276C166.59 58.2379 166.211 59.1949 164.08 59.6522C162.723 59.9435 161.238 59.9093 159.858 59.7032C159.236 59.6105 158.731 58.7419 158.172 58.2253C158.278 58.0353 158.383 57.8453 158.489 57.6553C160.048 57.7525 161.607 57.8497 163.166 57.9469C163.29 57.7172 163.413 57.4875 163.536 57.2579C162.207 55.8978 160.962 54.4394 159.526 53.2037C157.893 51.7982 157.823 50.7385 159.791 49.9107C164.912 47.7565 163.45 45.817 160.031 43.7242C158.497 42.7847 156.838 42.0484 155.085 41.1423C155.21 43.5765 155.49 45.6832 155.353 47.7623C155.285 48.7956 154.451 49.7783 153.759 50.807Z" fill="white"/>
<path d="M204.882 42.6918C204.699 43.4532 204.548 44.0407 204.217 45.3317C206.652 43.511 208.66 42.1887 210.443 40.612C211.592 39.5959 212.533 39.7277 213.226 40.7599C213.599 41.3147 213.634 42.5326 213.266 43.0755C211.23 46.081 209.096 49.0288 206.818 51.8536C206.339 52.4482 205.119 52.4456 204.24 52.7182C204.093 52.454 203.947 52.1897 203.8 51.9254C205.091 50.1131 206.381 48.3007 207.672 46.4884C207.589 46.3822 207.506 46.2759 207.423 46.1697C205.334 47.5246 203.244 48.8794 201.155 50.2343C200.876 49.997 200.598 49.7597 200.319 49.5224C200.987 47.2522 201.655 44.9819 202.323 42.7116C202.212 42.6291 202.101 42.5466 201.991 42.4642C201.148 43.5807 200.428 44.8291 199.419 45.7657C198.78 46.3581 197.71 46.4852 196.834 46.821C196.999 45.9512 196.908 44.9003 197.373 44.2424C199.65 41.0212 202.075 37.9047 204.437 34.7649C207.196 35.3699 207.605 35.9916 206.701 38.3788C206.169 39.7825 205.515 41.1397 204.882 42.6918Z" fill="white"/>
<path d="M76.3112 200.972C77.1278 203.294 77.9595 205.422 78.649 207.594C78.7774 207.999 78.3342 208.585 78.1548 209.087C77.6972 208.747 77.0157 208.503 76.8218 208.051C76.0773 206.312 75.4898 204.507 74.8422 202.727C74.7346 202.431 74.6982 202.06 74.4959 201.855C71.3405 198.658 70.6936 194.97 71.9041 190.691C72.5503 188.406 71.2236 186.417 70.08 184.478C68.2393 181.357 66.6172 178.099 64.6312 175.077C63.9336 174.016 62.5315 173.237 61.2864 172.751C57.8442 171.409 54.3011 170.327 50.8336 169.045C50.2269 168.821 49.7939 168.127 49.2806 167.65C49.4227 167.371 49.5647 167.092 49.7067 166.812C51.4114 167.359 53.1156 167.906 54.8208 168.451C57.2963 169.241 59.769 170.04 62.2495 170.815C64.4316 171.496 66.061 172.497 66.9636 174.937C67.9082 177.49 69.4789 179.878 71.1064 182.096C73.4564 185.298 74.705 188.884 73.7311 192.594C72.9449 195.588 74.067 197.489 75.5868 199.573C75.8604 199.948 76.0493 200.385 76.3112 200.972Z" fill="white"/>
<path d="M189.145 27.0629C187.606 30.636 186.197 34.0684 184.63 37.4271C184.346 38.0364 183.414 38.3436 182.781 38.7902C182.3 38.1013 181.452 37.437 181.404 36.7192C181.234 34.1829 181.338 31.6282 181.338 28.763C180.332 30.9923 179.464 33.0732 178.439 35.0736C178.191 35.5582 177.423 35.7769 176.895 36.1179C176.681 35.4661 176.115 34.6738 176.31 34.1851C177.713 30.6687 179.225 27.192 180.83 23.7629C181.07 23.2495 182.031 22.6977 182.573 22.7737C184.021 22.9769 184.343 24.1188 184.2 25.4636C183.961 27.7242 183.771 29.9901 183.56 32.2537C183.765 32.3066 183.97 32.3595 184.175 32.4124C185.283 29.9721 186.391 27.5318 187.499 25.0916C187.755 25.0094 188.011 24.9272 188.266 24.845C188.585 25.529 188.903 26.213 189.145 27.0629Z" fill="white"/>
<path d="M100.741 248.009C100.741 246.763 100.741 245.732 100.741 244.7C100.579 244.652 100.418 244.604 100.256 244.556C99.6144 246.552 98.8974 248.528 98.3551 250.552C97.9422 252.092 97.2271 252.739 95.3566 251.917C96.6633 247.732 97.9334 243.537 99.3276 239.384C99.4746 238.946 100.649 238.37 100.838 238.515C101.555 239.071 102.46 239.839 102.576 240.632C102.915 242.957 102.909 245.333 103.072 248.305C104.331 245.281 105.31 242.865 106.383 240.492C106.46 240.324 107.233 240.47 108.154 240.47C107.543 242.808 107.046 244.912 106.438 246.984C105.861 248.951 105.269 250.927 104.47 252.809C104.208 253.427 103.26 254.138 102.659 254.109C102.156 254.084 101.446 253.108 101.28 252.44C100.94 251.075 100.903 249.634 100.741 248.009Z" fill="white"/>
<path d="M131.443 18.6124C131.349 17.0752 131.256 15.7438 131.151 14.251C132.316 13.7587 133.258 13.5303 133.394 15.4558C133.687 19.619 134.074 23.7756 134.419 27.8953C132.289 28.7316 131.17 28.2015 130.432 26.3368C129.627 24.3034 128.574 22.368 127.285 20.4397C127.412 23.0972 127.54 25.7546 127.667 28.4121C127.477 28.5892 127.287 28.7664 127.097 28.9435C126.477 28.545 125.349 28.1849 125.315 27.7419C124.987 23.4068 124.841 19.0578 124.646 14.7853C126.597 13.9991 127.582 14.4782 128.267 16.1394C129.008 17.9376 130.01 19.6283 131.443 21.2788C131.443 20.4587 131.443 19.6385 131.443 18.6124Z" fill="white"/>
<path d="M172.74 252.199C171.623 253.153 170.672 254.358 169.506 254.624C165.865 255.454 163.843 253.383 164.031 249.552C164.078 248.601 163.842 247.472 163.332 246.688C162.151 244.876 162.355 243.199 163.55 241.649C164.763 240.075 166.475 239.696 168.382 240.3C170.399 240.94 171.384 242.404 171.201 244.423C171.088 245.663 171.481 246.382 172.108 247.419C172.849 248.646 172.617 250.461 172.74 252.199ZM167.866 248.561C167.416 249.301 166.688 250.016 166.622 250.788C166.583 251.244 167.676 252.272 168.11 252.195C169.032 252.032 170.427 251.467 170.607 250.793C171.054 249.118 169.852 248.445 167.866 248.561ZM168.388 243.047C167.415 243.057 166.414 242.949 165.493 243.172C165.304 243.218 165.143 244.688 165.466 245.162C165.778 245.619 166.792 245.919 167.393 245.792C168.643 245.528 169.201 244.632 168.388 243.047Z" fill="white"/>
<path d="M48.6003 67.5408C49.5848 68.3282 50.4473 69.0014 51.3911 69.7382C50.7068 70.9889 50.1318 72.1196 48.6898 70.9554C45.3875 68.2893 42.1396 65.5558 38.8964 62.8717C40.7204 58.4465 43.3614 56.6786 46.4975 58.0978C47.5753 58.5856 48.5554 59.975 48.9347 61.1592C49.5008 62.9271 50.3896 63.7444 52.2038 63.8406C53.1256 63.8895 54.0302 64.2624 55.1591 64.5425C54.789 66.5041 53.8527 66.9896 52.0031 66.3477C50.7012 65.8958 49.2862 65.7698 47.1136 65.3374C47.8312 66.436 48.1548 66.9313 48.6003 67.5408ZM43.8857 63.788C45.0907 65 46.0383 64.1286 46.2968 63.1152C46.5076 62.289 46.1831 60.7913 45.5722 60.3915C43.803 59.2337 43.259 61.086 42.3546 62.1398C42.8114 62.6391 43.2354 63.1025 43.8857 63.788Z" fill="white"/>
<path d="M149.084 15.4974C149.6 16.8359 149.987 18.0372 150.374 19.2385C150.072 19.4599 149.77 19.6814 149.469 19.9028C148.885 19.3904 148.318 18.8567 147.713 18.3706C146.852 17.6787 145.89 16.4217 145.107 16.5168C144.306 16.614 143.337 17.9512 143.036 18.9285C142.581 20.4069 142.522 22.0432 142.514 23.6136C142.504 25.4207 143.59 26.4714 145.385 26.3254C147.156 26.1813 147.479 24.9169 147.301 24.1348C146.093 22.878 145.361 22.1161 144.629 21.3542C144.774 21.1635 144.919 20.9728 145.064 20.7821C146.542 20.7821 148.02 20.7821 149.757 20.7821C149.412 23.4582 150.62 26.4684 147.473 28.1943C143.978 30.1107 140.244 28.099 140.132 24.1413C140.069 21.9448 140.267 19.6875 140.733 17.541C141.561 13.7222 145.516 12.743 149.084 15.4974Z" fill="white"/>
<path d="M61.786 50.0344C62.5386 51.7001 63.6095 53.2117 63.7113 54.786C63.9357 58.2588 60.966 60.2039 57.6619 59.0621C54.6149 58.0091 51.031 53.4174 50.8007 50.746C50.6082 48.5114 51.8634 46.8886 53.421 46.4201C55.0034 45.9441 57.0925 46.5034 58.75 47.1483C59.9048 47.5976 60.7057 48.9563 61.786 50.0344ZM55.7558 48.4709C53.1488 48.8675 52.458 50.1839 53.9758 52.2759C55.0757 53.7917 56.3771 55.2208 57.8289 56.3902C58.3537 56.8129 60.0425 56.7048 60.3785 56.2421C60.9424 55.4657 61.3746 53.802 60.933 53.2342C59.5656 51.4759 57.7603 50.058 55.7558 48.4709Z" fill="white"/>
<path d="M80.0381 232.219C79.8418 233.005 79.5571 233.858 79.8355 234.443C80.1928 235.194 81.0584 235.684 81.6068 236.366C82.9592 238.047 82.8664 241.097 81.4742 242.549C80.1763 243.903 77.1569 244.156 75.4746 243.053C73.7434 241.917 72.6962 239.078 73.5344 237.351C73.7533 236.9 74.6156 236.475 75.1129 236.543C75.4614 236.591 75.7219 237.483 75.9686 238.023C76.4237 239.018 76.693 240.148 77.3513 240.974C77.5841 241.266 79.0289 241.084 79.3764 240.666C79.807 240.149 79.902 239.099 79.712 238.395C79.5479 237.787 78.7782 237.346 78.2821 236.825C76.4316 234.883 76.1489 232.708 77.7453 230.853C79.1192 229.256 80.8456 228.833 82.8503 229.924C85.101 231.148 85.9502 233.033 85.1567 235.483C85.061 235.778 84.8397 236.033 84.5937 236.446C83.6645 235.943 82.3594 236.166 82.8187 234.148C83.1607 232.646 81.8594 231.815 80.0381 232.219Z" fill="white"/>
<path d="M241.191 72.2305C242.436 75.6455 241.925 77.3429 238.951 78.7615C238.951 77.6946 238.982 76.8308 238.942 75.9703C238.898 75.0197 238.916 74.0292 238.621 73.1525C238.544 72.9233 236.94 72.8354 236.837 73.0553C236.491 73.8 236.382 74.7153 236.407 75.5589C236.445 76.8783 237.16 78.4214 236.683 79.4497C236.105 80.6951 234.736 81.9719 233.437 82.3927C231.404 83.0512 229.199 82.24 228.495 80.1394C227.973 78.5831 228.389 76.6649 228.602 74.9342C228.679 74.3045 229.377 73.7508 229.817 73.126C231.389 74.1623 232.238 74.7652 231.031 76.3635C230.577 76.9647 230.736 78.375 231.134 79.1511C231.399 79.6679 232.58 79.7151 233.351 79.9725C233.608 79.0132 233.919 78.0636 234.091 77.0893C234.151 76.7496 233.782 76.3558 233.751 75.9753C233.593 74.0121 233.158 72.0187 235.467 70.7681C237.82 69.4932 239.536 70.2835 241.191 72.2305Z" fill="white"/>
<path d="M106.455 139.173C106.944 138.039 107.927 136.864 107.835 135.779C107.47 131.47 110.248 128.79 112.419 125.7C114.125 123.271 115.494 120.605 117.002 118.038C118.828 114.93 120.626 111.804 122.491 108.72C122.684 108.401 123.252 108.309 124.054 107.907C124.054 108.908 124.332 109.801 124.011 110.163C120.265 114.395 119.015 119.974 116.079 124.618C114.695 126.808 112.72 128.624 111.324 130.808C110.515 132.074 110.296 133.727 109.864 135.221C109.366 136.944 109.037 138.726 108.403 140.394C108.16 141.031 107.275 141.423 106.683 141.927C106.614 141.111 106.545 140.296 106.48 139.311C106.484 139.141 106.455 139.173 106.455 139.173Z" fill="white"/>
<path d="M168.498 19.7746C169.277 17.801 170.423 18.3992 171.736 19.1224C171.736 23.3535 171.784 27.6539 171.685 31.951C171.67 32.618 170.982 33.2695 170.605 33.9281C170.184 33.2751 169.475 32.6518 169.404 31.9627C169.26 30.5621 169.393 29.4337 167.409 29.1037C166.106 28.8868 165.579 29.0481 165.026 30.1303C164.271 31.6057 163.242 32.3432 161.632 30.8013C163.906 27.1308 166.144 23.5192 168.498 19.7746Z" fill="white"/>
<path d="M218.777 50.3687C220.272 49.9804 221.442 47.9392 222.934 49.6135C224.429 51.2911 222.539 52.4601 221.866 53.7415C220.181 56.9524 218.408 60.1172 216.653 63.3315C214.846 62.6247 214.627 61.6147 215.466 60.2567C216.121 59.1964 216.523 58.3446 215.336 57.1587C214.16 55.9833 213.313 56.3215 212.24 57.0017C211.026 57.772 209.994 57.7109 209.169 56.025C212.293 54.1711 215.45 52.2979 218.777 50.3687Z" fill="white"/>
<path d="M196.781 234.417C199.019 236.172 200.16 238.829 199.371 240.677C198.528 242.654 197.049 243.833 194.732 243.704C193.041 243.61 191.858 242.976 191.424 240.627C192.495 240.759 193.386 241.03 194.233 240.93C195.184 240.819 196.591 240.642 196.928 240.02C197.852 238.316 196.425 237.153 195.167 236.385C194.762 236.138 193.605 236.858 192.955 237.352C192.268 237.875 191.777 238.654 191.199 239.322C190.633 238.707 189.937 238.169 189.521 237.466C186.278 231.976 186.281 231.939 192.086 229.01C192.56 228.771 193.39 229.236 194.055 229.374C193.857 229.973 193.786 230.671 193.42 231.138C193.113 231.531 192.454 231.639 191.964 231.898C189.824 233.032 189.818 233.07 191.278 235.29C192.834 233.753 194.613 233.315 196.781 234.417Z" fill="white"/>
<path d="M82.3833 35.8179C81.297 36.4942 80.357 37.0718 79.3016 37.7202C79.9083 38.6871 80.4862 39.6079 81.1912 40.7313C82.2087 40.1355 83.0821 39.4176 84.082 39.1079C84.7991 38.8859 85.6854 39.2098 86.4962 39.2902C86.1782 39.9302 86.0259 40.8108 85.5112 41.1651C83.9591 42.2338 82.266 43.0979 80.2791 44.2427C79.2616 42.5964 78.2159 40.9744 77.242 39.3103C76.0835 37.3307 74.904 35.3546 73.9131 33.2909C73.6113 32.6623 73.5878 31.3352 73.9777 31.0385C75.5406 29.8489 77.2941 28.897 79.0396 27.9757C79.2629 27.8579 80.0939 28.3567 80.2133 28.7137C80.3601 29.1523 80.2348 29.9674 79.912 30.2251C78.8746 31.0534 77.6922 31.7001 76.4742 32.475C76.9493 33.4026 77.4134 34.3086 77.9676 35.3907C79.0999 34.7389 80.0728 34.0612 81.1421 33.6141C81.6572 33.3987 82.354 33.6179 82.9685 33.6403C82.8222 34.3332 82.6759 35.0261 82.3833 35.8179Z" fill="white"/>
<path d="M135.351 244.458C136.062 245.047 136.595 245.531 137.127 246.015C136.424 246.319 135.733 246.835 135.014 246.877C133.959 246.938 132.884 246.661 131.617 246.502C131.617 247.882 131.617 248.955 131.617 250.281C133.185 250.357 134.741 250.432 136.403 250.512C136.899 251.897 136.952 252.874 135.062 252.812C133.965 252.776 132.866 252.806 131.612 252.806C131.612 254.145 131.612 255.215 131.612 256.519C133.21 256.599 134.766 256.676 136.368 256.756C136.974 258.218 136.852 259.1 135.029 259.051C133.436 259.008 131.83 259.147 130.255 258.976C129.719 258.918 128.834 258.162 128.831 257.72C128.805 254.152 129.082 250.579 128.996 247.014C128.944 244.83 129.615 243.877 131.849 244.163C132.947 244.303 134.064 244.295 135.351 244.458Z" fill="white"/>
<path d="M96.9904 68.591C101.416 67.5267 104.964 65.3762 106.073 60.9795C106.613 58.8373 105.826 56.3652 105.673 54.0403C105.619 53.2336 105.664 52.4205 105.664 51.6102C105.968 51.5475 106.272 51.4847 106.576 51.422C107.029 52.3504 107.647 53.2347 107.911 54.2142C110.151 62.5373 106.004 68.5592 98.1455 70.4908C93.9362 71.5255 92.8229 70.5837 93.0694 66.1901C93.1867 64.0992 94.4481 61.6801 96.474 60.2319C96.474 61.2717 96.6198 62.0192 96.4445 62.6817C96.0434 64.1969 95.3601 65.6433 95.0285 67.1691C94.7363 68.5135 95.4171 69.1083 96.9904 68.591Z" fill="white"/>
<path d="M91.0614 35.6513C89.7298 32.901 88.3015 30.3549 87.3913 27.6355C86.6996 25.569 88.1275 23.9127 89.7787 22.8424C91.4031 21.7894 93.3367 21.6157 94.8391 23.0582C95.5316 23.7232 96.2887 25.3112 95.9661 25.8411C95.249 27.0189 94.4256 26.0683 93.5456 25.3848C92.9324 24.9086 91.5361 24.8862 90.8194 25.2727C90.2424 25.5838 89.7503 26.9221 89.9368 27.6105C90.4278 29.4226 91.167 31.2103 92.101 32.8394C92.5053 33.5445 93.8274 34.3843 94.3847 34.1858C95.2228 33.8874 95.7729 32.7441 96.4015 31.9262C96.5199 31.7721 96.3369 31.3786 96.4582 31.2356C96.8721 30.7476 97.3597 30.3221 97.8192 29.8727C98.1491 30.3357 98.7051 30.7699 98.7681 31.2666C98.9959 33.0615 98.8356 34.816 97.0699 35.8893C95.1038 37.0843 93.1151 37.5869 91.0614 35.6513Z" fill="white"/>
<path d="M115.606 248.099C115.295 249.679 114.705 251.085 114.809 252.438C114.877 253.319 115.797 254.489 116.628 254.845C117.281 255.124 118.426 254.441 119.271 254.021C119.988 253.665 120.588 253.073 121.505 252.387C122.296 255.411 120.702 256.439 119.066 257.245C117.042 258.243 115.064 257.556 113.575 256.151C111.348 254.05 112.587 245.332 115.192 243.692C116.92 242.604 118.735 242.251 120.588 243.323C122.658 244.521 123.262 246.346 122.503 249.086C121.744 248.548 120.571 248.125 120.532 247.614C120.404 245.97 119.385 244.991 118.159 245.299C117.159 245.55 116.456 246.99 115.606 248.099Z" fill="white"/>
<path d="M39.7718 77.058C40.2245 77.8641 40.7987 78.5177 41.3476 79.1919C42.0622 80.0696 43.5203 81.4967 43.3343 81.7631C42.2373 83.3347 41.0414 82.1218 39.934 81.4421C37.4506 79.9179 35.0051 78.3287 32.483 76.8719C30.6801 75.8305 30.0358 74.6406 31.6502 72.9861C32.8116 71.7958 33.9094 70.2867 35.3534 69.6939C37.1573 68.9533 38.9882 69.9031 40.0677 71.5862C41.1878 73.3324 41.1245 75.1793 39.7718 77.058ZM38.1438 73.4326C37.4021 72.9656 36.4182 71.949 35.9697 72.1468C35.0536 72.5506 34.4256 73.6078 33.6251 74.4528C37.472 76.8095 37.5808 76.786 38.1438 73.4326Z" fill="white"/>
<path d="M74.696 68.7719C76.6604 69.5823 78.5066 70.2295 80.2911 71.0165C81.2638 71.4455 82.3864 71.9165 82.9956 72.7105C84.3752 74.5092 84.2645 77.1138 83.0504 77.7275C80.6199 78.9561 76.9068 77.9738 75.6493 75.281C77.9098 75.6682 79.8502 76.0005 81.9137 76.3538C81.9612 74.1209 80.8717 73.321 79.2648 72.8875C76.0344 72.0162 73.0012 70.849 70.7279 68.1474C69.3089 66.4609 69.4616 64.6352 69.7208 62.753C69.7694 62.4008 70.4496 62.1356 71.3242 61.4484C71.3046 64.7061 71.7188 67.3354 74.696 68.7719Z" fill="white"/>
<path d="M107.93 44.1094C107.548 43.2406 107.22 42.5433 106.892 41.8461C107.058 41.6245 107.224 41.403 107.389 41.1815C108.051 41.6034 108.983 41.8724 109.324 42.4755C110.402 44.3841 111.541 45.9391 113.847 46.6586C119.379 48.3846 120.809 53.5809 117.074 58.1761C116.094 59.382 114.748 60.3295 113.447 61.2137C112.993 61.5219 112.167 61.2819 111.51 61.2923C111.803 60.6751 111.986 59.9675 112.408 59.4574C113.74 57.848 115.576 56.5131 116.451 54.7019C117.791 51.926 117.604 49.7052 114.08 48.955C111.312 48.3658 109.071 47.0715 107.93 44.1094Z" fill="white"/>
<path d="M69.2302 46.8375C67.6775 44.6489 66.2209 42.6058 64.6624 40.4199C64.0785 40.7316 63.5773 41.1439 63.015 41.2594C62.4277 41.3801 61.7816 41.215 61.1613 41.1748C61.3455 40.5144 61.3225 39.6246 61.7524 39.2361C63.0917 38.026 64.5394 36.9024 66.0778 35.9626C66.6984 35.5835 67.6632 35.7678 68.4715 35.6957C68.22 36.4768 68.0261 37.284 67.6896 38.0265C67.5492 38.3362 67.1052 38.5082 66.6786 38.8354C68.6315 41.5165 70.4622 44.2596 72.5439 46.7966C73.6891 48.1924 73.4676 48.9772 71.8346 49.9325C71.0126 48.9659 70.1695 47.9745 69.2302 46.8375Z" fill="white"/>
<path d="M102.52 18.5392C104.292 18.0384 105.879 17.5396 107.504 17.2643C108.06 17.1703 108.71 17.6371 109.317 17.8477C108.951 18.444 108.633 19.5122 108.21 19.5559C106.261 19.7567 106.634 20.8538 106.973 22.0699C107.65 24.4989 108.317 26.9311 108.95 29.3716C109.157 30.1689 109.249 30.9962 109.38 31.7367C107.555 32.6639 106.974 31.7109 106.63 30.4433C105.929 27.8592 105.16 25.2863 104.633 22.6658C104.368 21.3528 103.857 21.0491 102.587 21.0299C101.847 21.0186 101.117 20.2675 100.383 19.8492C101.038 19.4424 101.694 19.0356 102.52 18.5392Z" fill="white"/>
<path d="M224.056 72.4051C222.575 70.9655 221.141 69.6183 220.056 68.0318C219.734 67.56 220.117 66.0907 220.651 65.6349C223.528 63.1804 226.53 60.8675 229.56 58.6017C229.963 58.3004 230.774 58.5446 231.396 58.5362C231.254 59.3036 231.387 60.3924 230.926 60.7854C228.296 63.029 225.524 65.1069 222.755 67.2766C223.541 68.335 224.292 69.3244 225.017 70.3318C225.786 71.3984 225.505 72.0944 224.056 72.4051Z" fill="white"/>
<path d="M182.75 249.228C182.147 249.843 181.556 250.239 180.613 250.872C180.613 246.106 180.613 242.024 180.613 237.742C179.237 238.298 177.961 238.926 176.614 239.303C176.051 239.461 175.338 239.086 174.693 238.954C175.002 238.312 175.148 237.325 175.649 237.088C177.638 236.146 179.738 235.437 182.34 234.432C183.188 239.431 182.591 244.245 182.75 249.228Z" fill="white"/>
<path d="M66.9508 188.791C67.7355 188.238 68.3967 187.812 69.058 187.387C68.9807 188.238 69.2253 189.546 68.7729 189.865C66.2353 191.652 66.8401 193.763 67.5792 196.148C68.0362 197.622 68.0492 199.26 68.0972 200.829C68.1599 202.877 67.8426 204.921 69.795 206.487C70.2763 206.873 70.0418 208.151 70.1364 209.019C69.4514 208.657 68.7353 208.343 68.0875 207.924C66.3345 206.789 66.242 205.062 66.1375 203.145C65.9755 200.176 65.4746 197.215 64.9659 194.277C64.5864 192.084 64.6133 190.155 66.9508 188.791Z" fill="white"/>
<path d="M59.1104 119.526C60.1479 121.02 59.5992 122.704 57.8761 123.607C56.8058 124.167 55.6704 124.604 54.2562 125.233C55.9095 125.729 57.1365 126.098 58.5155 126.512C58.0713 128.22 58.0695 129.913 56.0098 129.931C55.4666 129.936 54.917 129.221 54.1497 128.682C53.9575 129.784 53.702 131.249 53.4464 132.715C53.2338 132.811 53.0213 132.906 52.8087 133.002C52.4774 132.331 51.8493 131.65 51.8699 130.989C51.9339 128.94 52.1551 126.884 52.5101 124.864C52.6271 124.199 53.2245 123.487 53.7975 123.057C55.4546 121.812 57.211 120.699 59.1104 119.526Z" fill="white"/>
<path d="M177.584 132.253C178.793 133.926 179.935 135.436 180.944 137.03C181.725 138.264 181.198 138.929 179.803 139.113C175.955 139.62 171.468 136.259 171.108 132.347C171.057 131.788 172.338 130.525 172.845 130.604C174.424 130.849 175.927 131.582 177.584 132.253ZM176.211 136.283C176.864 136.478 177.516 136.673 178.391 136.935C177.293 134.558 175.903 133.065 173.147 133.34C174.062 134.287 174.977 135.234 176.211 136.283Z" fill="white"/>
<path d="M157.785 256.366C156.243 258.158 155.647 257.689 155.398 255.655C155.043 252.742 154.484 249.854 153.977 246.736C152.894 247.731 152.137 248.427 151.281 249.214C150.209 246.402 152.806 242.921 155.918 242.926C156.543 247.307 157.175 251.738 157.785 256.366Z" fill="white"/>
<path d="M87.7479 150.442C85.82 154.56 87.7198 157.83 89.4341 161.161C89.7111 161.699 89.5896 162.442 89.6522 163.091C89.0079 162.824 88.0538 162.74 87.7688 162.259C85.7264 158.815 83.8607 155.232 85.4799 151.081C86.2927 148.998 85.4889 147.427 84.5846 145.706C84.2046 144.982 84.254 144.033 84.4675 143.108C87.0635 144.906 88.1234 147.268 87.7479 150.442Z" fill="white"/>
<path d="M226.651 110.816C226.377 111.387 226.008 111.79 225.639 112.194C225.277 111.837 224.607 111.487 224.598 111.122C224.458 105.347 221.202 100.911 218.393 96.2662C218.06 95.7169 218.137 94.9203 218.493 94.1011C222.972 98.8166 226.161 104.058 226.651 110.816Z" fill="white"/>
<path d="M93.6839 237.134C92.1389 240.624 90.5881 243.92 89.2657 247.304C88.5615 249.107 87.804 249.378 86.2155 247.842C87.9217 243.947 89.6322 239.97 91.4359 236.035C91.6216 235.63 92.3636 235.48 92.8474 235.212C93.156 235.8 93.4646 236.388 93.6839 237.134Z" fill="white"/>
<path d="M197.928 30.4025C196.822 34.9515 191.61 42.5036 189.455 42.4775C189.675 41.6196 189.732 40.7597 190.102 40.0674C191.703 37.0726 193.351 34.1001 195.081 31.1785C195.657 30.2067 196.379 28.9523 197.928 30.4025Z" fill="white"/>
<path d="M115.282 18.9752C115.203 17.7565 115.203 16.7342 115.203 15.5861C116.617 15.2059 117.317 15.4579 117.551 16.9921C118.073 20.4103 118.774 23.8009 119.359 27.2101C119.594 28.5781 119.738 29.9803 117.235 29.8777C116.621 26.3704 115.991 22.771 115.282 18.9752Z" fill="white"/>
<path d="M200.711 79.0987C200.455 81.1451 200.373 83.1532 199.636 84.8826C199.112 86.1112 197.727 86.719 196.977 84.6867C196.684 85.3496 196.521 86.1348 196.053 86.6333C195.722 86.9868 194.977 86.9529 194.417 87.0919C194.404 86.5654 194.347 86.035 194.394 85.5139C194.42 85.2206 194.725 84.9412 194.721 84.6582C194.683 81.9648 196.294 80.9296 198.368 80.8382C198.581 79.5141 198.756 78.4321 198.93 77.3501C199.489 77.8805 200.047 78.4109 200.711 79.0987Z" fill="white"/>
<path d="M196.217 141.624C196.947 140.331 197.597 139.167 198.414 138.135C200.178 135.906 201.994 133.717 203.863 131.577C204.348 131.022 205.108 130.708 205.742 130.283C205.727 131.062 206.024 132.076 205.644 132.579C203.857 134.947 201.862 137.157 199.99 139.464C199.302 140.311 198.781 141.293 198.121 142.166C197.78 142.617 197.302 142.965 196.886 143.359C196.661 142.844 196.437 142.328 196.217 141.624Z" fill="white"/>
<path d="M196.54 201.232C192.478 198.704 191.191 195.016 191.452 190.634C191.484 190.099 192.049 189.596 192.367 189.078C192.685 189.596 193.257 190.104 193.28 190.635C193.425 194.003 194.135 197.028 197.259 198.988C197.819 199.339 198.406 200.025 198.51 200.637C198.654 201.486 198.353 202.41 198.243 203.302C197.702 202.666 197.161 202.029 196.54 201.232Z" fill="white"/>
<path d="M194.523 106.951C193.755 108.257 192.794 109.336 194.128 110.696C194.317 110.888 193.933 111.642 193.814 112.137C193.244 111.976 192.279 111.947 192.172 111.63C191.782 110.469 191.072 108.806 191.571 108.062C193.611 105.017 192.498 101.721 192.884 98.5644C192.978 97.7946 193.492 97.0762 193.813 96.3341C194.087 96.426 194.361 96.5178 194.634 96.6096C194.634 100.001 194.634 103.392 194.523 106.951Z" fill="white"/>
<path d="M174.631 196.25C175.103 198.686 175.49 200.941 176.058 203.15C176.355 204.305 177.083 205.348 177.411 206.499C177.681 207.449 177.649 208.485 177.751 209.483C177.334 209.574 176.917 209.665 176.5 209.756C175.57 207.45 174.455 205.197 173.763 202.82C173.151 200.717 172.952 198.483 172.696 196.292C172.624 195.678 172.994 195.013 173.161 194.371C173.648 194.931 174.134 195.491 174.631 196.25Z" fill="white"/>
<path d="M140.555 141.662C140.478 140.994 140.293 140.514 140.357 140.07C140.423 139.611 140.732 139.187 140.934 138.748C141.422 139.03 142.29 139.257 142.342 139.605C143.051 144.374 143.344 149.145 141.758 153.874C139.999 153.898 140.017 152.933 140.248 151.682C140.575 149.908 140.918 148.116 140.988 146.322C141.045 144.845 140.715 143.352 140.555 141.662Z" fill="white"/>
<path d="M145.692 41.8241C144.533 41.196 143.51 40.6814 142.487 40.1667C142.481 39.9614 142.474 39.756 142.468 39.5507C143.105 39.3386 143.865 38.7893 144.36 38.9691C147.621 40.153 150.621 41.7515 151.571 45.4806C151.717 46.0525 151.319 46.763 151.172 47.4094C150.672 47.0293 150.105 46.711 149.683 46.2578C148.369 44.8451 147.109 43.3814 145.692 41.8241Z" fill="white"/>
<path d="M80.4969 56.9278C78.6955 58.8205 77.882 60.7859 78.5497 63.2848C78.6918 63.8166 78.0986 64.5449 77.8441 65.1827C77.462 64.7128 76.8958 64.3007 76.727 63.7637C75.4851 59.8123 77.0148 56.2699 80.9743 54.594C80.8318 55.4739 80.725 56.1337 80.4969 56.9278Z" fill="white"/>
<path d="M145.53 139.446C145.708 141.447 145.793 143.253 145.914 145.813C144.899 145.037 144.095 144.737 144.031 144.323C143.588 141.444 143.237 138.546 143.014 135.642C142.971 135.091 143.63 134.486 143.965 133.906C144.269 134.44 144.716 134.942 144.849 135.516C145.131 136.741 145.251 138.003 145.53 139.446Z" fill="white"/>
<path d="M100.429 142.617C100.684 141.926 101.087 141.32 101.622 140.624C102.658 139.532 103.434 138.35 104.505 137.576C105.682 136.727 106.586 137.125 106.468 138.979C106.455 139.173 106.484 139.141 106.498 139.126C105.713 139.739 104.807 140.272 104.147 141.023C103.602 141.643 103.433 142.58 102.938 143.261C102.603 143.723 101.991 143.984 101.503 144.334C101.195 143.79 100.887 143.246 100.429 142.617Z" fill="white"/>
<path d="M89.2703 89.8523C87.2469 90.8152 85.3641 91.6538 83.4883 92.4893C83.3491 92.3725 83.1294 92.2739 83.1295 92.1757C83.1338 89.7667 86.6428 86.8088 88.903 87.3489C90.625 87.7604 90.4339 88.6793 89.2703 89.8523Z" fill="white"/>
<path d="M123.485 149.041C122.105 148.219 121.896 146.106 123.018 145.579C123.452 145.375 124.169 145.379 124.561 145.614C124.831 145.776 124.947 146.565 124.807 146.958C124.552 147.675 124.055 148.307 123.485 149.041Z" fill="white"/>
<path d="M179.928 173.613C179.874 172.75 179.897 172.059 179.919 171.368C180.494 171.525 181.223 171.522 181.599 171.885C181.951 172.226 181.93 172.953 182.073 173.51C181.383 173.601 180.693 173.693 179.928 173.613Z" fill="white"/>
<path d="M141.923 176.559C141.013 174.528 140.555 172.52 140.94 170.196C141.357 167.673 140.99 165.027 141.08 162.438C141.1 161.875 141.61 161.329 141.894 160.776C142.247 161.341 142.868 161.889 142.908 162.476C143.14 165.906 143.362 169.348 143.311 172.781C143.292 174.033 142.516 175.273 141.923 176.559Z" fill="#A00000"/>
<path d="M127.26 74.2595C127.115 73.4527 127.082 72.7442 127.049 72.0357C127.415 72.0768 127.781 72.1179 128.146 72.1591C127.888 72.892 127.63 73.6248 127.26 74.2595Z" fill="#A00000"/>
<path d="M170.051 107.699C169.913 107.981 169.684 108.171 169.455 108.361C169.488 108.092 169.521 107.823 169.666 107.489C169.839 107.485 169.9 107.546 170.051 107.699Z" fill="#A00000"/>
<path d="M110.875 156.916C110.778 154.935 110.778 153.04 110.778 151.145C111.154 151.152 111.53 151.158 111.907 151.165C111.741 153.089 111.576 155.013 111.288 157.055C111.1 157.115 111.036 157.058 110.875 156.916Z" fill="#A00000"/>
<path d="M142.567 225.641C141.136 225.991 140.053 227.997 138.106 226.044C140.183 225.254 141.959 224.578 143.735 223.902C143.852 224.146 143.968 224.391 144.084 224.636C143.624 224.938 143.163 225.24 142.567 225.641Z" fill="#A00000"/>
<path d="M168.055 248.539C169.852 248.445 171.054 249.118 170.607 250.793C170.427 251.467 169.032 252.032 168.11 252.195C167.676 252.272 166.583 251.244 166.622 250.788C166.688 250.016 167.416 249.301 168.055 248.539Z" fill="#A00000"/>
<path d="M168.515 243.18C169.201 244.632 168.643 245.528 167.393 245.792C166.792 245.919 165.778 245.619 165.466 245.162C165.143 244.688 165.304 243.218 165.493 243.172C166.414 242.949 167.415 243.057 168.515 243.18Z" fill="#A00000"/>
<path d="M43.7726 63.6769C43.2354 63.1025 42.8114 62.6391 42.3546 62.1398C43.259 61.086 43.803 59.2337 45.5722 60.3915C46.1831 60.7913 46.5076 62.289 46.2968 63.1152C46.0383 64.1286 45.0907 65 43.7726 63.6769Z" fill="#A00000"/>
<path d="M55.9404 48.4895C57.7603 50.058 59.5656 51.4759 60.933 53.2342C61.3746 53.802 60.9424 55.4657 60.3785 56.2421C60.0425 56.7048 58.3537 56.8129 57.8289 56.3902C56.3771 55.2208 55.0757 53.7917 53.9758 52.2759C52.458 50.1839 53.1488 48.8675 55.9404 48.4895Z" fill="#A00000"/>
<path d="M38.2212 73.5971C37.5808 76.786 37.472 76.8095 33.6251 74.4528C34.4256 73.6078 35.0536 72.5506 35.9697 72.1468C36.4182 71.949 37.4021 72.9656 38.2212 73.5971Z" fill="#A00000"/>
<path d="M176.052 136.232C174.977 135.234 174.062 134.287 173.147 133.34C175.903 133.065 177.293 134.558 178.391 136.935C177.516 136.673 176.864 136.478 176.052 136.232Z" fill="#A00000"/>
<path d="M136.957 76.2132C135.756 74.9216 136.587 74.4498 137.671 74.4288C138.288 74.4169 138.915 74.9393 139.538 75.2211C138.979 75.5702 138.434 75.9466 137.852 76.2521C137.67 76.348 137.387 76.2531 136.957 76.2132Z" fill="white"/>
</svg>
